<svg xmlns="http://www.w3.org/2000/svg" viewBox="0 0 483.335 79.171"><path d="M67.378 17.922L37.521.685a5.11 5.11 0 00-5.11 0L2.556 17.922A5.11 5.11 0 000 22.347v34.476a5.11 5.11 0 002.555 4.425l29.857 17.238a5.11 5.11 0 005.11 0l29.856-17.238a5.11 5.11 0 002.555-4.425V22.347a5.11 5.11 0 00-2.555-4.425zM47.452 58.403h-6.776L37.08 42.037c-.876-3.925-1.502-7.249-1.955-10.996h-.103a105.864 105.864 0 01-2.292 11.007l-4.04 16.355h-6.866l-8.49-34.75h6.77l3.312 15.784a399.13 399.13 0 012.258 12.091h.115c.56-3.63 1.509-7.782 2.517-12.169l3.738-15.706h6.684l3.44 15.992c.844 4.103 1.588 7.986 2.105 11.751h.109c.61-3.844 1.447-7.804 2.357-12.042l3.613-15.7h6.466l-9.366 34.75zM435.658 14.32l-3.043-1.757a.52.52 0 00-.52 0l-3.043 1.756a.52.52 0 00-.26.451v3.514c0 .186.099.358.26.45l3.042 1.757a.52.52 0 00.521 0l3.043-1.756a.52.52 0 00.26-.451V14.77a.52.52 0 00-.26-.45zM94.346 63.736l-9.574-49.91h5.865L94.855 37.9a260.944 260.944 0 012.494 18.001h.251c.638-6.33 1.778-11.707 3-18.104l4.612-23.97h4.833l4.603 23.504c1.126 5.894 2.229 11.58 2.925 18.57h.2c.828-7.204 1.71-12.639 2.642-18.311l4.136-23.764h5.59l-9.714 49.91h-5.576l-4.788-24.275c-1-5.301-1.925-10.9-2.539-16.388h-.148c-.703 5.651-1.57 11.02-2.74 16.595l-4.944 24.068h-5.346zm57.991-23.715h-12.49v18.763h14.238v4.952h-19.917v-49.91h18.999v4.952h-13.32v16.424h12.49v4.819zm8.046-26.195h5.678v45.076h14.032v4.834h-19.71v-49.91zm25.475 0h5.678v45.076h14.031v4.834h-19.709v-49.91zm24.312 43.321c1.681 1.082 4.688 2.03 7.163 2.03 5.226 0 8.343-3.427 8.343-8.482 0-4.612-2.695-7.417-6.598-10.37-3.93-2.743-9.404-7.394-9.404-13.841 0-7.547 5.28-13.102 13.208-13.102 3.095 0 5.783.992 6.976 1.829l-1.371 4.878c-1.273-.889-3.37-1.703-5.946-1.703-4.886 0-7.204 3.708-7.204 7.142 0 4.944 2.59 6.92 7.338 10.26 6.006 4.265 8.665 8.85 8.665 14.373 0 8.628-6.052 14.02-13.978 14.02-3.415 0-7-1.118-8.414-2.184l1.223-4.85zm32.035-38.197h-9.13v-5.124h23.961v5.123h-9.152v44.787h-5.679V18.95zm43.744 19.497c0 18.676-6.399 25.882-14.45 25.882-8.291 0-13.844-8.825-13.844-25.592 0-16.56 5.96-25.504 14.666-25.504 8.528 0 13.628 9.264 13.628 25.214zm-22.377.334c0 10.273 1.992 20.544 8.349 20.544 6.423 0 8.112-10.895 8.112-20.7 0-9.314-1.703-20.387-8.187-20.387-6.282 0-8.274 10.412-8.274 20.543zm28.072 24.955v-49.91h5.367l9.158 23.408c2.087 5.36 4.664 11.964 6.389 17.368h.148c-.452-7.852-.697-14.291-.697-22.919V13.826h5.13v49.91h-5.367l-9.483-24.006c-2.021-5.042-4.161-10.7-5.93-16.94h-.148c.43 6.677.563 13.003.563 23.658v17.288h-5.13zm50.438-23.715h-12.49v18.763h14.238v4.952h-19.917v-49.91h18.999v4.952h-13.32v16.424h12.49v4.819zm8.643 21.346c0-1.778 1.037-3.036 2.592-3.036 1.703 0 2.592 1.258 2.592 3.036s-.89 2.962-2.592 2.962c-1.555 0-2.592-1.185-2.592-2.962zm30.085-48.874V56.48c0 1.777.221 5.924.296 7.257h-2.74l-.297-4.739h-.295c-1.038 2.518-3.407 5.332-7.48 5.332-5.035 0-9.923-5.332-9.923-18.217 0-12.737 5.184-18.512 10.293-18.512 2.296 0 5.11.962 6.813 4.59h.148V12.493h3.185zm-3.185 29.102c0-.814 0-1.703-.074-2.518-.296-4.665-3.184-8.663-6.443-8.663-5.553 0-7.405 7.627-7.405 15.55 0 7.997 2 15.55 6.961 15.55 2.073 0 5.184-1.11 6.813-7.923.148-.74.148-1.629.148-2.444v-9.552zm10.997 3.036c0 14.292 4.962 16.736 8.96 16.736 2.296 0 4.147-.593 5.332-1.407l.741 2.443c-1.704 1.185-4.295 1.778-6.665 1.778-7.775 0-11.626-7.331-11.626-18.069 0-11.256 4.073-18.512 10.589-18.512 7.035 0 8.96 8.664 8.96 14.958v2.073h-16.291zm12.886-2.591c.147-8.739-3.48-11.626-6.073-11.626-4.147 0-6.369 5.923-6.739 11.626h12.812zm8.515 17.476c1.185.814 3.11 1.85 5.332 1.85 3.702 0 6.146-2.517 6.146-6.442 0-3.184-.962-5.553-4.813-8.294-3.925-2.814-7.183-5.48-7.183-10.07 0-5.406 4.147-8.96 8.664-8.96a9.497 9.497 0 015.776 1.925l-1.407 2.592c-1.333-1.037-2.74-1.703-4.591-1.703-3.406 0-5.258 2.74-5.258 5.48 0 2.887.963 4.516 4.591 7.182 3.406 2.444 7.48 5.406 7.48 10.96 0 7.034-4.666 10.145-9.553 10.145-2.37 0-4.888-.815-6.368-2.074l1.184-2.591zm20.754 4.22V28.192h3.184v35.544h-3.184zm28.788-35.544c-.074 1.925-.296 4.74-.296 10.96v19.623c0 10.441-1.037 13.625-3.036 16.069-1.851 2.37-4.962 3.702-8.146 3.702-2.888 0-5.702-.814-7.183-1.776l1.037-2.666c1.185.666 3.628 1.628 6.517 1.628 4.295 0 7.627-2.591 7.627-12.292v-4.517h-.149c-1.184 3.11-3.85 4.813-7.034 4.813-5.258 0-10.071-6.072-10.071-17.772 0-13.922 6.294-18.364 10.737-18.364 4.37 0 5.776 3.11 6.665 4.813h.148l.148-4.221h3.036zm-3.48 11.774c0-.889 0-1.777-.223-2.592-.74-2.962-2.22-6.96-6.442-6.96-4.517 0-7.257 6.071-7.257 15.254 0 10.663 3.48 15.254 7.33 15.254 2.074 0 4.889-.888 6.296-6.664.296-1.333.296-2.444.296-3.48V39.965zm8.441-3.554c0-4.37-.223-5.703-.296-8.22h2.888l.148 4.369h.148c1.333-2.888 4.073-4.961 7.85-4.961s8.07 2.517 8.07 11.551v24.585h-3.183V40.41c0-5.035-.889-10.07-5.85-10.07-2.888 0-5.703 2.517-6.443 7.405-.148.962-.148 1.999-.148 3.11v22.881h-3.184V36.412z" fill="#fff"/></svg>