<?xml version="1.0" encoding="utf-8"?>
<!-- Generator: Adobe Illustrator 24.0.3, SVG Export Plug-In . SVG Version: 6.00 Build 0)  -->
<svg version="1.1" xmlns="http://www.w3.org/2000/svg" xmlns:xlink="http://www.w3.org/1999/xlink" x="0px" y="0px"
	 viewBox="0 0 483.33469 79.17056" style="enable-background:new 0 0 483.33469 79.17056;" xml:space="preserve">
<style type="text/css">
	.st0{fill:#343535;}
	.st1{fill:#3AA6A0;}
</style>
<g id="design">
	<g id="レイヤー_4">
		<path class="st0" d="M435.65768,14.3195l-3.04248-1.75658c-0.1611-0.09301-0.35959-0.09301-0.52072,0l-3.04245,1.75658
			c-0.16113,0.09301-0.26038,0.26491-0.26038,0.45094v3.51316c0,0.18603,0.09924,0.35792,0.26038,0.45094l3.04245,1.75658
			c0.16113,0.09301,0.35962,0.09301,0.52072,0l3.04248-1.75658c0.1611-0.09302,0.26035-0.26491,0.26035-0.45094v-3.51316
			C435.91803,14.58441,435.81879,14.41252,435.65768,14.3195z"/>
		<path class="st0" d="M380.80963,12.49316v43.98633c0,1.77686,0.22168,5.92383,0.2959,7.25684h-2.74023l-0.2959-4.73926h-0.2959
			c-1.03711,2.51758-3.40625,5.33154-7.47949,5.33154c-5.03516,0-9.92285-5.33154-9.92285-18.21631
			c0-12.73682,5.18359-18.5127,10.29297-18.5127c2.2959,0,5.10938,0.9624,6.8125,4.59082h0.14844V12.49316H380.80963z
			 M377.62506,41.59521c0-0.81445,0-1.70312-0.07422-2.51807c-0.2959-4.66504-3.18359-8.66357-6.44238-8.66357
			c-5.55371,0-7.40527,7.62695-7.40527,15.55029c0,7.99756,2,15.55078,6.96094,15.55078c2.07324,0,5.18359-1.11084,6.8125-7.92334
			c0.14844-0.74023,0.14844-1.62891,0.14844-2.44385V41.59521z"/>
		<path class="st0" d="M388.6218,44.63135c0,14.2915,4.96191,16.73535,8.96094,16.73535c2.29492,0,4.14648-0.59229,5.33105-1.40674
			l0.74121,2.44336c-1.7041,1.18506-4.29492,1.77734-6.66504,1.77734c-7.77539,0-11.62598-7.33105-11.62598-18.06836
			c0-11.25586,4.07324-18.5127,10.58887-18.5127c7.03516,0,8.96094,8.66406,8.96094,14.95801c0,0.6665,0,1.33301,0,2.07373H388.6218
			z M401.50754,42.03955c0.14746-8.73828-3.48047-11.62598-6.07227-11.62598c-4.14746,0-6.36914,5.92383-6.73926,11.62598H401.50754
			z"/>
		<path class="st0" d="M410.02316,59.51562c1.18457,0.81445,3.11035,1.85107,5.33203,1.85107
			c3.70215,0,6.14551-2.51758,6.14551-6.44238c0-3.18408-0.96191-5.55371-4.8125-8.29395
			c-3.9248-2.81396-7.18359-5.47949-7.18359-10.0708c0-5.40576,4.14746-8.95996,8.66406-8.95996
			c2.66602,0,4.5918,1.03662,5.77637,1.92529l-1.40723,2.5918c-1.33301-1.03662-2.74023-1.70312-4.59082-1.70312
			c-3.40625,0-5.25781,2.73975-5.25781,5.47949c0,2.88818,0.96289,4.51709,4.59082,7.18311
			c3.40625,2.44385,7.47949,5.40576,7.47949,10.95947c0,7.03467-4.66504,10.14502-9.55273,10.14502
			c-2.36914,0-4.8877-0.81445-6.36816-2.07324L410.02316,59.51562z"/>
		<path class="st0" d="M430.77707,63.73633V28.19189h3.18359v35.54443H430.77707z"/>
		<path class="st0" d="M459.56516,28.19189c-0.07422,1.92529-0.2959,4.73926-0.2959,10.95947V58.7749
			c0,10.44141-1.03711,13.62549-3.03613,16.06885c-1.85156,2.36963-4.96191,3.70264-8.14648,3.70264
			c-2.8877,0-5.70117-0.81445-7.18262-1.77686l1.03711-2.66602c1.18457,0.6665,3.62793,1.62891,6.5166,1.62891
			c4.29492,0,7.62695-2.5918,7.62695-12.29248v-4.51709h-0.14844c-1.18457,3.11035-3.85059,4.81348-7.03418,4.81348
			c-5.25781,0-10.07129-6.07227-10.07129-17.77246c0-13.92139,6.29395-18.36426,10.7373-18.36426
			c4.36914,0,5.77637,3.10986,6.66504,4.81299h0.14746l0.14844-4.2207H459.56516z M456.08469,39.96582
			c0-0.88867,0-1.77686-0.22266-2.5918c-0.74023-2.96191-2.2207-6.96045-6.44238-6.96045
			c-4.5166,0-7.25684,6.07178-7.25684,15.25439c0,10.66309,3.48047,15.25439,7.33105,15.25439
			c2.07324,0,4.8877-0.88867,6.29492-6.66455c0.2959-1.33301,0.2959-2.44385,0.2959-3.48047V39.96582z"/>
		<path class="st0" d="M464.52609,36.41162c0-4.36914-0.22266-5.70215-0.2959-8.21973h2.8877l0.14844,4.36914h0.14746
			c1.33301-2.88818,4.07324-4.96143,7.84961-4.96143s8.07129,2.51758,8.07129,11.55176v24.58496h-3.18359V40.41016
			c0-5.03516-0.88867-10.0708-5.85059-10.0708c-2.8877,0-5.70215,2.51758-6.44238,7.40527
			c-0.14844,0.9624-0.14844,1.99902-0.14844,3.10986v22.88184h-3.18359V36.41162z"/>
	</g>
</g>
<g id="_x2E_">
	<g id="レイヤー_5">
		<path class="st0" d="M350.72501,61.3667c0-1.77734,1.03711-3.03613,2.5918-3.03613c1.70312,0,2.5918,1.25879,2.5918,3.03613
			s-0.88867,2.96191-2.5918,2.96191C351.76212,64.32861,350.72501,63.14404,350.72501,61.3667z"/>
	</g>
</g>
<g id="WELLSTONE">
	<g id="レイヤー_3">
		<path class="st0" d="M94.34641,63.73633l-9.57422-49.91016h5.86523l4.21777,24.07422
			c1.08789,6.25635,1.85059,11.87695,2.49414,18.00098h0.25098c0.6377-6.33105,1.77734-11.70703,3-18.10449l4.61133-23.9707h4.83301
			l4.60352,23.50488c1.12598,5.89355,2.22852,11.58057,2.9248,18.57031h0.19922c0.8291-7.2041,1.70996-12.63916,2.64258-18.31152
			l4.13672-23.76367h5.58985l-9.71387,49.91016h-5.57617l-4.78809-24.27539c-1-5.30127-1.9248-10.89941-2.53906-16.3877h-0.14844
			c-0.70312,5.65088-1.57031,11.02002-2.74023,16.59473l-4.94336,24.06836H94.34641z"/>
		<path class="st0" d="M152.33665,40.021h-12.49023v18.76318h14.23828v4.95215h-19.91699V13.82617h18.99902v4.95215h-13.32031
			v16.42383h12.49023V40.021z"/>
		<path class="st0" d="M160.38255,13.82617h5.67871v45.07617h14.03125v4.83398h-19.70996V13.82617z"/>
		<path class="st0" d="M185.85814,13.82617h5.67773v45.07617h14.03125v4.83398h-19.70898V13.82617z"/>
		<path class="st0" d="M210.17064,57.14746c1.68066,1.08154,4.6875,2.02881,7.16211,2.02881
			c5.22656,0,8.34277-3.42676,8.34277-8.48145c0-4.61133-2.69434-7.4165-6.59766-10.37061
			c-3.92969-2.74219-9.4043-7.39355-9.4043-13.84033c0-7.54639,5.28027-13.10205,13.20801-13.10205
			c3.0957,0,5.7832,0.99219,6.97656,1.8291l-1.37109,4.87793c-1.27344-0.88867-3.36914-1.70312-5.94629-1.70312
			c-4.88574,0-7.2041,3.70801-7.2041,7.14258c0,4.94336,2.59082,6.91992,7.33789,10.25928
			c6.00684,4.26514,8.66504,8.84961,8.66504,14.37354c0,8.62744-6.05176,14.01953-13.97754,14.01953
			c-3.41504,0-7-1.11816-8.41406-2.18408L210.17064,57.14746z"/>
		<path class="st0" d="M242.20514,18.94922h-9.13086v-5.12305h23.96191v5.12305h-9.15234v44.78711h-5.67871V18.94922z"/>
		<path class="st0" d="M285.94894,38.44727c0,18.67578-6.39844,25.88135-14.4502,25.88135
			c-8.29102,0-13.84375-8.82471-13.84375-25.5918c0-16.56055,5.96094-25.50342,14.66602-25.50342
			C280.84933,13.2334,285.94894,22.49658,285.94894,38.44727z M263.57199,38.78125c0,10.27246,1.99219,20.54346,8.34863,20.54346
			c6.42383,0,8.1123-10.89453,8.1123-20.69971c0-9.31445-1.70312-20.38721-8.18652-20.38721
			C265.56418,18.23779,263.57199,28.6499,263.57199,38.78125z"/>
		<path class="st0" d="M291.64362,63.73633V13.82617h5.36719l9.1582,23.4082c2.08691,5.35889,4.66406,11.96387,6.38867,17.36768
			h0.14844c-0.45215-7.85205-0.69727-14.29102-0.69727-22.91895V13.82617h5.12988v49.91016h-5.36719l-9.48242-24.00635
			c-2.02148-5.0415-4.16113-10.7002-5.92969-16.93945H296.211c0.42969,6.67627,0.5625,13.00293,0.5625,23.65771v17.28809H291.64362z
			"/>
		<path class="st0" d="M342.08243,40.021h-12.49023v18.76318h14.2373v4.95215h-19.91699V13.82617h18.99902v4.95215h-13.31934
			v16.42383h12.49023V40.021z"/>
	</g>
</g>
<g id="logo">
	<path class="st1" d="M67.37799,17.92233L37.52134,0.68458c-1.58101-0.91277-3.52879-0.91277-5.1098,0L2.5549,17.92233
		C0.97389,18.8351,0,20.52199,0,22.3475v34.47556c0,1.82554,0.97389,3.5124,2.5549,4.42517l29.85665,17.23775
		c1.58101,0.91277,3.52879,0.91277,5.1098,0l29.85665-17.23775c1.58101-0.91277,2.55489-2.59963,2.55489-4.42517V22.3475
		C69.93288,20.52199,68.959,18.8351,67.37799,17.92233z M47.45194,58.40337h-6.7761L37.0801,42.03712
		c-0.87638-3.92492-1.50183-7.24906-1.95483-10.99612h-0.10291c-0.58222,3.72121-1.25513,7.05452-2.29222,11.00716
		l-4.04028,16.35521h-6.86632l-8.48939-34.75005h6.76952l3.31239,15.78332c0.85946,4.23059,1.67429,8.64869,2.25838,12.09148
		h0.11419c0.55966-3.62958,1.50935-7.78194,2.51777-12.16878l3.73719-15.70602h6.68446l3.43927,15.9915
		c0.84443,4.10302,1.58829,7.98658,2.10613,11.75126h0.10855c0.60994-3.84457,1.44732-7.80449,2.35659-12.04214l3.61361-15.70062
		h6.46549L47.45194,58.40337z"/>
</g>
</svg>
